<svg width="25" height="12" viewBox="0 0 25 12" fill="none" xmlns="http://www.w3.org/2000/svg">
<path opacity="0.4" fill-rule="evenodd" clip-rule="evenodd" d="M2.74033 1.02762H19.8674C20.8133 1.02762 21.5801 1.79443 21.5801 2.74033V8.90607C21.5801 9.85197 20.8133 10.6188 19.8674 10.6188H2.74033C1.79443 10.6188 1.02762 9.85197 1.02762 8.90607V2.74033C1.02762 1.79443 1.79443 1.02762 2.74033 1.02762ZM0 2.74033C0 1.22689 1.22689 0 2.74033 0H19.8674C21.3808 0 22.6077 1.22689 22.6077 2.74033V8.90607C22.6077 10.4195 21.3808 11.6464 19.8674 11.6464H2.74033C1.22689 11.6464 0 10.4195 0 8.90607V2.74033ZM25 5.82325C25 6.72051 24.4622 7.53037 23.6353 7.8785V3.76801C24.4622 4.11614 25 4.926 25 5.82325Z" fill="black"/>
<rect x="2.05514" y="2.05525" width="18.4972" height="7.53591" rx="1.33333" fill="black"/>
</svg>
