<svg width="17" height="11" viewBox="0 0 17 11" fill="none" xmlns="http://www.w3.org/2000/svg">
<path fill-rule="evenodd" clip-rule="evenodd" d="M16 0H15C14.4477 0 14 0.447717 14 1V9.6667C14 10.219 14.4477 10.6667 15 10.6667H16C16.5523 10.6667 17 10.219 17 9.6667V1C17 0.447717 16.5523 0 16 0ZM10.3332 2.33331H11.3333C11.8855 2.33331 12.3333 2.78103 12.3333 3.33331V9.66667C12.3333 10.219 11.8855 10.6667 11.3333 10.6667H10.3332C9.78096 10.6667 9.33324 10.219 9.33324 9.66667V3.33331C9.33324 2.78103 9.78096 2.33331 10.3332 2.33331ZM6.66675 4.66681H5.66675C5.11446 4.66681 4.66675 5.11452 4.66675 5.66681V9.66682C4.66675 10.2191 5.11446 10.6668 5.66675 10.6668H6.66675C7.21904 10.6668 7.66676 10.2191 7.66676 9.66682V5.66681C7.66676 5.11452 7.21904 4.66681 6.66675 4.66681ZM2.00001 6.66682H1C0.447717 6.66682 0 7.11454 0 7.66683V9.66683C0 10.2191 0.447717 10.6668 1 10.6668H2.00001C2.55229 10.6668 3.00001 10.2191 3.00001 9.66683V7.66683C3.00001 7.11454 2.55229 6.66682 2.00001 6.66682Z" fill="black"/>
</svg>
