<svg width="32" height="27" viewBox="0 0 32 27" fill="none" xmlns="http://www.w3.org/2000/svg">
<path d="M27.6018 14.8162C27.6621 14.3944 27.7023 13.9556 27.7023 13.5C27.7023 13.0444 27.6621 12.6056 27.5817 12.1837L30.9797 9.95625C31.2813 9.75375 31.3618 9.3825 31.1808 9.09562L27.9637 4.42125C27.7626 4.1175 27.3404 4.01625 26.9785 4.1175L22.9772 5.4675C22.1327 4.9275 21.248 4.48875 20.2628 4.15125L19.6596 0.57375C19.5993 0.23625 19.2575 0 18.8553 0H12.4212C12.019 0 11.6973 0.23625 11.637 0.57375L11.0338 4.15125C10.0486 4.48875 9.14376 4.94437 8.31938 5.4675L4.31812 4.1175C3.9562 3.99937 3.53396 4.1175 3.33289 4.42125L0.115806 9.09562C-0.0852622 9.39937 -0.0048347 9.75375 0.316874 9.95625L3.71492 12.1837C3.63449 12.6056 3.57417 13.0612 3.57417 13.5C3.57417 13.9387 3.61439 14.3944 3.69481 14.8162L0.296767 17.0437C-0.00483518 17.2462 -0.0852621 17.6175 0.095699 17.9044L3.31279 22.5787C3.51385 22.8825 3.9361 22.9837 4.29802 22.8825L8.29927 21.5325C9.14376 22.0725 10.0285 22.5112 11.0137 22.8487L11.6169 26.4262C11.6973 26.7637 12.019 27 12.4212 27H18.8553C19.2575 27 19.5993 26.7637 19.6395 26.4262L20.2427 22.8487C21.2279 22.5112 22.1327 22.0556 22.9571 21.5325L26.9584 22.8825C27.3203 23.0006 27.7425 22.8825 27.9436 22.5787L31.1607 17.9044C31.3618 17.6006 31.2813 17.2462 30.9596 17.0437L27.6018 14.8162ZM15.6382 18.5625C12.3206 18.5625 9.60621 16.2844 9.60621 13.5C9.60621 10.7156 12.3206 8.4375 15.6382 8.4375C18.9559 8.4375 21.6703 10.7156 21.6703 13.5C21.6703 16.2844 18.9559 18.5625 15.6382 18.5625Z" fill="white"/>
</svg>
