<svg width="24" height="24" viewBox="0 0 24 24" fill="none" xmlns="http://www.w3.org/2000/svg">
<path d="M12.963 7.635L7.767 3.748C7.649 3.658 7.58 3.55033 7.56 3.425C7.53933 3.29967 7.57367 3.178 7.663 3.06C7.753 2.942 7.864 2.87167 7.996 2.849C8.128 2.82633 8.253 2.86 8.371 2.95L13.567 6.842L12.963 7.635ZM9.12 6.977L8.816 7.267C8.73267 7.33767 8.66 7.406 8.598 7.472C8.536 7.53867 8.478 7.61533 8.424 7.702L6.902 6.575C6.784 6.485 6.71467 6.374 6.694 6.242C6.674 6.11 6.70867 5.985 6.798 5.867C6.88733 5.749 6.99833 5.68 7.131 5.66C7.263 5.63933 7.388 5.67367 7.506 5.763L9.12 6.977ZM17.807 7.775L11.014 2.715C10.8967 2.62567 10.83 2.518 10.814 2.392C10.7973 2.26667 10.834 2.145 10.924 2.027C11.014 1.909 11.1217 1.83967 11.247 1.819C11.373 1.799 11.495 1.83367 11.613 1.923L17.032 5.958L17.392 3.271C17.4287 3.051 17.5163 2.86 17.655 2.698C17.7937 2.53667 17.9713 2.44167 18.188 2.413L18.88 2.34L21.018 9.567C21.1387 9.95367 21.167 10.3353 21.103 10.712C21.039 11.0887 20.8843 11.4367 20.639 11.756L19.303 13.542C19.2697 13.3473 19.2173 13.162 19.146 12.986C19.0747 12.8093 18.9867 12.6377 18.882 12.471L19.847 11.171C19.9983 10.9737 20.095 10.7617 20.137 10.535C20.1797 10.3083 20.165 10.0813 20.093 9.854L18.316 3.894L17.807 7.775ZM7.385 10.367L6.862 9.983C6.742 9.89833 6.671 9.78867 6.649 9.654C6.62767 9.51933 6.662 9.393 6.752 9.275C6.842 9.157 6.953 9.091 7.085 9.077C7.217 9.063 7.342 9.10067 7.46 9.19L7.965 9.562C7.95833 9.69533 7.96467 9.82933 7.984 9.964C8.00267 10.0993 8.036 10.2337 8.084 10.367H7.385ZM2.5 15.981C2.358 15.981 2.23933 15.933 2.144 15.837C2.04867 15.741 2.00067 15.622 2 15.48C2 15.338 2.048 15.2193 2.144 15.124C2.23933 15.0287 2.358 14.981 2.5 14.981H9V15.981H2.5ZM3.5 18.75C3.358 18.75 3.23933 18.702 3.144 18.606C3.048 18.51 3 18.3913 3 18.25C3 18.1087 3.048 17.99 3.144 17.894C3.23933 17.7987 3.358 17.751 3.5 17.751H9V18.751L3.5 18.75ZM5.5 21.52C5.358 21.52 5.23933 21.4717 5.144 21.375C5.04867 21.2783 5.00067 21.16 5 21.02C5 20.878 5.048 20.759 5.144 20.663C5.23933 20.5677 5.358 20.52 5.5 20.52H15.115C15.527 20.52 15.88 20.373 16.174 20.079C16.468 19.785 16.615 19.432 16.615 19.02V14.713C16.615 14.469 16.5657 14.242 16.467 14.032C16.3683 13.8213 16.2203 13.647 16.023 13.509L11.046 9.786L12.962 13.213H4.5C4.358 13.213 4.23933 13.165 4.144 13.069C4.04867 12.973 4.00067 12.8533 4 12.71C4 12.568 4.048 12.4493 4.144 12.354C4.24 12.2587 4.35867 12.211 4.5 12.211H11.254L9.924 9.845C9.81333 9.649 9.766 9.44167 9.782 9.223C9.798 9.00433 9.89 8.824 10.058 8.682L10.585 8.212L16.608 12.714C16.9273 12.9593 17.175 13.2517 17.351 13.591C17.527 13.931 17.615 14.3043 17.615 14.711V19.018C17.615 19.7127 17.372 20.303 16.886 20.789C16.4 21.2757 15.81 21.519 15.116 21.519L5.5 21.52Z" fill="#111111"/>
</svg>
