<svg width="67" height="12" viewBox="0 0 67 12" fill="none" xmlns="http://www.w3.org/2000/svg">
<path fill-rule="evenodd" clip-rule="evenodd" d="M16.0959 0H15.0899C14.5343 0 14.0839 0.450401 14.0839 1.006V9.72466C14.0839 10.2803 14.5343 10.7307 15.0899 10.7307H16.0959C16.6515 10.7307 17.1019 10.2803 17.1019 9.72466V1.006C17.1019 0.450401 16.6515 0 16.0959 0ZM10.3952 2.3473H11.4012C11.9568 2.3473 12.4072 2.7977 12.4072 3.3533V9.72463C12.4072 10.2802 11.9568 10.7306 11.4012 10.7306H10.3952C9.83961 10.7306 9.38921 10.2802 9.38921 9.72463V3.3533C9.38921 2.7977 9.83961 2.3473 10.3952 2.3473ZM6.70673 4.69479H5.70073C5.14513 4.69479 4.69473 5.14519 4.69473 5.70079V9.72479C4.69473 10.2804 5.14513 10.7308 5.70073 10.7308H6.70673C7.26233 10.7308 7.71273 10.2804 7.71273 9.72479V5.70079C7.71273 5.14519 7.26233 4.69479 6.70673 4.69479ZM2.012 6.7068H1.006C0.450401 6.7068 0 7.1572 0 7.7128V9.7248C0 10.2804 0.450401 10.7308 1.006 10.7308H2.012C2.5676 10.7308 3.018 10.2804 3.018 9.7248V7.7128C3.018 7.1572 2.5676 6.7068 2.012 6.7068Z" fill="black"/>
<path fill-rule="evenodd" clip-rule="evenodd" d="M29.8144 2.29099C32.0436 2.29109 34.1876 3.14763 35.8031 4.68359C35.9248 4.80218 36.1193 4.80068 36.2391 4.68024L37.402 3.50657C37.4627 3.44549 37.4965 3.36274 37.496 3.27665C37.4955 3.19055 37.4607 3.10821 37.3993 3.04784C33.1589 -1.01595 26.4692 -1.01595 22.2288 3.04784C22.1674 3.10817 22.1326 3.19048 22.132 3.27658C22.1314 3.36267 22.1652 3.44544 22.2258 3.50657L23.3891 4.68024C23.5088 4.80086 23.7034 4.80236 23.825 4.68359C25.4408 3.14753 27.585 2.29099 29.8144 2.29099ZM29.8145 6.10932C31.0392 6.10925 32.2203 6.5645 33.1282 7.38661C33.251 7.50328 33.4444 7.50076 33.5641 7.38091L34.7257 6.20724C34.7869 6.14568 34.8209 6.06216 34.82 5.97538C34.8191 5.8886 34.7835 5.80579 34.721 5.74549C31.9564 3.17377 27.6749 3.17377 24.9102 5.74549C24.8478 5.80579 24.8121 5.88864 24.8113 5.97545C24.8105 6.06226 24.8445 6.14577 24.9058 6.20724L26.0671 7.38091C26.1868 7.50076 26.3802 7.50328 26.503 7.38661C27.4103 6.56504 28.5905 6.10983 29.8145 6.10932ZM32.1414 8.67844C32.1432 8.76547 32.109 8.84937 32.0469 8.91034L30.0376 10.9381C29.9787 10.9977 29.8983 11.0312 29.8146 11.0312C29.7308 11.0312 29.6505 10.9977 29.5916 10.9381L27.5819 8.91034C27.5198 8.84933 27.4857 8.7654 27.4875 8.67837C27.4894 8.59134 27.527 8.50893 27.5916 8.4506C28.8749 7.36524 30.7543 7.36524 32.0375 8.4506C32.102 8.50898 32.1397 8.59142 32.1414 8.67844Z" fill="black"/>
<path opacity="0.4" fill-rule="evenodd" clip-rule="evenodd" d="M45.2087 1.006H61.9753C62.9013 1.006 63.652 1.75667 63.652 2.68267V8.71867C63.652 9.64466 62.9013 10.3953 61.9753 10.3953H45.2087C44.2827 10.3953 43.532 9.64466 43.532 8.71867V2.68266C43.532 1.75667 44.2827 1.006 45.2087 1.006ZM42.526 2.68266C42.526 1.20107 43.7271 0 45.2087 0H61.9753C63.4569 0 64.658 1.20107 64.658 2.68267V8.71867C64.658 10.2003 63.4569 11.4013 61.9753 11.4013H45.2087C43.7271 11.4013 42.526 10.2003 42.526 8.71867V2.68266ZM66.9999 5.70072C66.9999 6.57909 66.4735 7.37191 65.6639 7.71272V3.68872C66.4735 4.02953 66.9999 4.82235 66.9999 5.70072Z" fill="black"/>
<rect x="44.5379" y="2.012" width="18.108" height="7.37733" rx="1.33333" fill="black"/>
</svg>
