<svg width="66" height="65" viewBox="0 0 66 65" fill="none" xmlns="http://www.w3.org/2000/svg">
<path d="M32.9012 50.7813C35.3316 50.7813 37.7382 50.3084 39.9835 49.3897C42.2289 48.471 44.2691 47.1244 45.9876 45.4268C47.7062 43.7292 49.0694 41.7139 49.9994 39.4959C50.9295 37.278 51.4082 34.9007 51.4082 32.5C51.4082 30.0993 50.9295 27.7221 49.9994 25.5041C49.0694 23.2861 47.7062 21.2708 45.9876 19.5732C44.2691 17.8756 42.2289 16.529 39.9835 15.6103C37.7382 14.6916 35.3316 14.2188 32.9012 14.2188C27.9929 14.2188 23.2856 16.1448 19.8149 19.5732C16.3441 23.0016 14.3943 27.6515 14.3943 32.5C14.3943 37.3485 16.3441 41.9984 19.8149 45.4268C23.2856 48.8552 27.9929 50.7813 32.9012 50.7813ZM32.9012 0C24.1753 0 15.8067 3.4241 9.63655 9.51903C3.46637 15.614 0 23.8805 0 32.5C0 41.1195 3.46637 49.386 9.63655 55.481C15.8067 61.5759 24.1753 65 32.9012 65C41.6272 65 49.9958 61.5759 56.1659 55.481C62.3361 49.386 65.8025 41.1195 65.8025 32.5C65.8025 23.8805 62.3361 15.614 56.1659 9.51903C49.9958 3.4241 41.6272 0 32.9012 0ZM4.11266 32.5C4.11266 28.7655 4.85729 25.0676 6.30406 21.6174C7.75082 18.1672 9.87137 15.0323 12.5446 12.3917C15.2179 9.75099 18.3915 7.65629 21.8843 6.22718C25.3771 4.79806 29.1207 4.0625 32.9012 4.0625C36.6818 4.0625 40.4254 4.79806 43.9182 6.22718C47.4109 7.65629 50.5846 9.75099 53.2578 12.3917C55.9311 15.0323 58.0517 18.1672 59.4984 21.6174C60.9452 25.0676 61.6898 28.7655 61.6898 32.5C61.6898 40.0421 58.6568 47.2753 53.2578 52.6084C47.8589 57.9414 40.5364 60.9375 32.9012 60.9375C25.266 60.9375 17.9435 57.9414 12.5446 52.6084C7.14573 47.2753 4.11266 40.0421 4.11266 32.5Z" fill="#F24E1E"/>
</svg>
