<svg width="16" height="11" viewBox="0 0 16 11" fill="none" xmlns="http://www.w3.org/2000/svg">
<path fill-rule="evenodd" clip-rule="evenodd" d="M7.66066 2.2845C9.88354 2.2846 12.0214 3.13872 13.6324 4.67033C13.7537 4.78857 13.9476 4.78708 14.0671 4.66698L15.2268 3.49664C15.2873 3.43573 15.321 3.35322 15.3205 3.26737C15.32 3.18152 15.2853 3.09941 15.2241 3.03921C10.9957 -1.01307 4.32495 -1.01307 0.0965758 3.03921C0.0353248 3.09936 0.000571796 3.18145 6.99274e-06 3.2673C-0.00055781 3.35315 0.0331122 3.43568 0.0935663 3.49664L1.25354 4.66698C1.37295 4.78726 1.567 4.78876 1.68824 4.67033C3.29945 3.13862 5.43757 2.2845 7.66066 2.2845ZM7.6607 6.09202C8.88202 6.09195 10.0598 6.5459 10.9651 7.36569C11.0875 7.48203 11.2804 7.47951 11.3998 7.36L12.5581 6.18966C12.6191 6.12827 12.6529 6.04499 12.652 5.95846C12.6512 5.87192 12.6156 5.78935 12.5534 5.72921C9.79654 3.16478 5.52719 3.16478 2.77034 5.72921C2.70806 5.78935 2.67253 5.87196 2.67172 5.95853C2.6709 6.04509 2.70486 6.12836 2.76599 6.18966L3.92396 7.36C4.04332 7.47951 4.23621 7.48203 4.35866 7.36569C5.26337 6.54645 6.44018 6.09253 7.6607 6.09202ZM9.98108 8.65386C9.98286 8.74064 9.94874 8.82431 9.88679 8.8851L7.88317 10.9071C7.82443 10.9665 7.74436 11 7.6608 11C7.57725 11 7.49717 10.9665 7.43844 10.9071L5.43448 8.8851C5.37257 8.82426 5.33852 8.74057 5.34035 8.65379C5.34219 8.56701 5.37975 8.48483 5.44417 8.42666C6.72376 7.34438 8.59784 7.34438 9.87743 8.42666C9.94181 8.48488 9.97931 8.56708 9.98108 8.65386Z" fill="black"/>
</svg>
