<svg width="34" height="34" viewBox="0 0 34 34" fill="none" xmlns="http://www.w3.org/2000/svg">
<path d="M22.6667 2.83333H11.3333C5.66667 2.83333 2.83333 5.66666 2.83333 11.3333V29.75C2.83333 30.5292 3.47083 31.1667 4.25 31.1667H22.6667C28.3333 31.1667 31.1667 28.3333 31.1667 22.6667V11.3333C31.1667 5.66666 28.3333 2.83333 22.6667 2.83333Z" fill="#1C2A3A"/>
<path d="M23.4458 10.5683C21.6608 8.78333 19.9325 8.74083 18.105 10.5683L16.9858 11.6875C16.8867 11.7867 16.8584 11.9283 16.8867 12.0558C17.5809 14.4925 19.5217 16.4333 21.9583 17.1275C21.9867 17.1417 22.0291 17.1417 22.0716 17.1417C22.1708 17.1417 22.27 17.0992 22.3408 17.0283L23.4458 15.9233C24.3525 15.0167 24.7917 14.1525 24.7917 13.2742C24.7917 12.3533 24.3525 11.475 23.4458 10.5683Z" fill="white"/>
<path d="M20.315 17.9492C20.0458 17.8217 19.7908 17.6942 19.55 17.5383C19.3517 17.425 19.1534 17.2975 18.9692 17.1558C18.8134 17.0567 18.6292 16.915 18.445 16.7592C18.4167 16.745 18.36 16.7025 18.2892 16.6175C17.9917 16.3625 17.6517 16.0225 17.34 15.6683C17.3117 15.6542 17.2692 15.5833 17.2125 15.4983C17.1133 15.385 16.9717 15.2008 16.83 15.0025C16.7167 14.8608 16.5892 14.6625 16.4758 14.4642C16.3342 14.2233 16.1925 13.9683 16.0792 13.7133C15.9517 13.43 15.8525 13.175 15.7533 12.92L10.4125 18.2608C10.0583 18.615 9.73252 19.2667 9.66168 19.7483L9.25084 22.695C9.15167 23.3183 9.33582 23.8992 9.71832 24.2958C10.0442 24.6217 10.4975 24.7917 10.9934 24.7917C11.1067 24.7917 11.2058 24.7775 11.3192 24.7633L14.2659 24.3525C14.7475 24.2817 15.3992 23.9558 15.7533 23.6017L21.0942 18.2608C20.8392 18.1617 20.5842 18.0625 20.315 17.9492Z" fill="white"/>
</svg>
